M48
; DRILL file {KiCad (5.1.9)-1} date 10/14/21 03:32:47
; FORMAT={-:-/ absolute / inch / decimal}
; #@! TF.CreationDate,2021-10-14T03:32:47+09:00
; #@! TF.GenerationSoftware,Kicad,Pcbnew,(5.1.9)-1
; #@! TF.FileFunction,Plated,1,2,PTH
FMAT,2
INCH
T1C0.0157
T2C0.0315
T3C0.1280
%
G90
G05
T1
X1.1719Y-3.6094
X1.1719Y-4.3125
X1.2656Y-4.3125
X1.3125Y-4.2656
X1.3594Y-3.3281
X1.3594Y-3.9375
X1.4062Y-3.5156
X1.4531Y-3.3281
X1.5Y-3.9375
X1.5469Y-4.3125
X1.5938Y-3.6094
X1.5938Y-3.9375
X1.6875Y-4.3125
X1.6875Y-5.0625
X1.7344Y-3.6094
X1.7344Y-3.9375
X1.7344Y-4.9688
X1.7812Y-4.3125
X1.8281Y-3.9375
X1.875Y-4.3125
X1.9219Y-3.9375
X1.9688Y-4.3125
X2.0156Y-3.9375
X2.0156Y-4.9688
X2.0625Y-2.0625
X2.0625Y-2.8125
X2.0625Y-3.5625
X2.0625Y-4.3125
X2.0625Y-5.0625
X2.0625Y-5.1562
X2.0625Y-5.25
X2.1094Y-1.9688
X2.1094Y-2.9062
X2.1094Y-3.4688
X2.1094Y-3.9375
X2.1562Y-5.2031
X2.2031Y-4.3125
X2.2031Y-5.1562
X2.25Y-3.9844
X2.25Y-4.0312
X2.25Y-4.0781
X2.25Y-4.125
X2.25Y-4.1719
X2.25Y-4.2188
X2.25Y-4.2656
X2.25Y-4.7344
X2.25Y-5.0156
X2.2969Y-4.7812
X2.3438Y-4.7344
X2.3906Y-1.9688
X2.3906Y-2.9062
X2.3906Y-3.4688
X2.3906Y-3.8438
X2.3906Y-3.8906
X2.3906Y-3.9375
X2.4375Y-2.0625
X2.4375Y-2.8125
X2.4375Y-3.5625
X2.625Y-1.7344
X2.625Y-2.0156
X2.625Y-2.4844
X2.625Y-2.7656
X2.625Y-3.2344
X2.625Y-3.5156
X2.6719Y-2.2031
X2.6719Y-2.3906
X2.6719Y-2.9531
X2.6719Y-3.1406
X2.7188Y-2.1562
X2.7188Y-2.4375
X2.7188Y-2.7188
X2.7188Y-2.8125
X2.7188Y-2.9062
X2.7188Y-3.1875
X2.7188Y-3.4688
X2.7188Y-3.5625
X2.7188Y-3.7969
X2.7188Y-4.125
X2.8125Y-1.875
X2.8125Y-2.625
X2.8125Y-3.375
X2.8594Y-1.7812
X2.8594Y-2.7188
X2.8594Y-3.2812
X3.1406Y-1.7812
X3.1406Y-2.7188
X3.1406Y-3.2812
X3.1875Y-1.875
X3.1875Y-2.625
X3.1875Y-3.375
X3.1875Y-6.1875
X3.2344Y-6.0938
X3.2812Y-2.625
X3.3281Y-2.6719
X3.375Y-1.5469
X3.375Y-1.8281
X3.375Y-2.2969
X3.375Y-2.5781
X3.375Y-3.0469
X3.375Y-3.3281
X3.4688Y-3.1406
X3.4688Y-3.2812
X3.4688Y-3.7969
X3.4688Y-4.125
X3.5156Y-3.0
X3.5156Y-3.7969
X3.5156Y-3.9844
X3.5156Y-6.0938
X3.5625Y-1.5
X3.5625Y-1.6406
X3.5625Y-1.7344
X3.5625Y-1.8281
X3.5625Y-2.25
X3.5625Y-2.3906
X3.5625Y-2.4844
X3.5625Y-3.0
X3.5625Y-3.0938
X3.5625Y-3.1406
X3.5625Y-3.2344
X3.6094Y-1.4062
X3.6094Y-1.6406
X3.6094Y-1.7344
X3.6094Y-2.3438
X3.6094Y-2.3906
X3.6094Y-2.4844
X3.6094Y-2.9062
X3.6094Y-4.0781
X3.75Y-5.8594
X3.75Y-6.1406
X3.8906Y-1.4062
X3.8906Y-2.3438
X3.8906Y-2.9062
X3.9375Y-1.5
X3.9375Y-2.25
X3.9375Y-3.0
X3.9375Y-4.1719
X3.9375Y-4.4531
X3.9375Y-4.5469
X3.9375Y-4.8281
X4.0781Y-3.4219
X4.0781Y-3.4688
X4.0781Y-3.5156
X4.125Y-1.1719
X4.125Y-1.4531
X4.125Y-1.9219
X4.125Y-2.2031
X4.125Y-2.6719
X4.125Y-2.9531
X4.125Y-3.5625
X4.125Y-3.7031
X4.1719Y-3.4219
X4.1719Y-3.4688
X4.1719Y-3.5156
X4.2188Y-1.5938
X4.2188Y-2.3438
X4.2188Y-3.0938
X4.2656Y-1.5469
X4.2656Y-2.2969
X4.2656Y-2.4375
X4.2656Y-3.0469
X4.3125Y-1.5
X4.3125Y-2.25
X4.3125Y-3.0
X4.3125Y-3.9844
X4.3125Y-4.1719
X4.3125Y-4.4531
X4.3594Y-1.4062
X4.3594Y-2.3438
X4.3594Y-2.9062
X4.3594Y-3.8906
X4.4062Y-2.3906
X4.4062Y-2.4844
X4.4531Y-3.375
X4.4531Y-4.2188
X4.4531Y-4.3594
X4.5Y-3.3281
X4.5469Y-4.2188
X4.5938Y-4.7812
X4.6406Y-1.4062
X4.6406Y-2.3438
X4.6406Y-2.9062
X4.6406Y-4.1719
X4.6406Y-4.3594
X4.6406Y-4.6875
X4.6875Y-1.5
X4.6875Y-2.25
X4.6875Y-3.0
X4.6875Y-4.125
X4.6875Y-4.2188
X4.7344Y-4.3125
X4.7812Y-4.9688
X4.8281Y-2.2969
X4.8281Y-3.0938
X4.875Y-1.1719
X4.875Y-1.4531
X4.875Y-1.9219
X4.875Y-2.2031
X4.875Y-2.6719
X4.875Y-2.9531
X4.9219Y-2.2969
X4.9219Y-3.0938
X4.9219Y-4.9688
X4.9688Y-1.9688
X4.9688Y-2.7188
X5.0156Y-1.9219
X5.0156Y-2.6719
X5.0156Y-3.5625
X5.0625Y-1.875
X5.0625Y-2.625
X5.0625Y-3.375
X5.1094Y-1.7812
X5.1094Y-1.9688
X5.1094Y-2.0625
X5.1094Y-2.7188
X5.1094Y-2.8125
X5.1094Y-3.2812
X5.1094Y-3.5625
X5.1562Y-4.125
X5.1562Y-4.2656
X5.1562Y-5.2031
X5.1562Y-5.3438
X5.3438Y-4.4531
X5.3438Y-5.5312
X5.3906Y-1.7812
X5.3906Y-2.7188
X5.3906Y-3.2812
X5.4375Y-1.875
X5.4375Y-2.625
X5.4375Y-3.375
X5.4375Y-3.4688
X5.4375Y-5.4844
X5.4375Y-6.0469
X5.4375Y-6.3281
X5.4844Y-3.5156
X5.4844Y-3.5625
X5.4844Y-4.4531
X5.625Y-1.5469
X5.625Y-1.8281
X5.625Y-2.2969
X5.625Y-2.5781
X5.625Y-3.0469
X5.625Y-3.3281
X5.6719Y-4.6406
X5.6719Y-4.7812
X5.7188Y-2.1562
X5.7188Y-2.9062
X5.7188Y-3.5625
X5.7656Y-2.1094
X5.7656Y-2.8594
X5.8125Y-2.0625
X5.8125Y-2.8125
X5.8125Y-3.0938
X5.8125Y-3.5625
X5.8125Y-5.6719
X5.8125Y-5.9531
X5.8125Y-6.0469
X5.8125Y-6.3281
X5.8594Y-1.9688
X5.8594Y-2.9062
X5.8594Y-3.4688
X5.8594Y-4.9688
X5.9062Y-3.0
X5.9531Y-5.4844
X5.9531Y-5.5781
X6.0Y-4.9688
X6.0938Y-3.75
X6.0938Y-3.8438
X6.1406Y-1.9688
X6.1406Y-2.9062
X6.1406Y-3.4688
X6.1406Y-3.6562
X6.1406Y-3.75
X6.1406Y-5.8125
X6.1875Y-2.0625
X6.1875Y-2.8125
X6.1875Y-3.5625
X6.1875Y-3.7969
X6.1875Y-3.8438
X6.2344Y-5.7656
X6.2812Y-3.7031
X6.3281Y-3.8438
X6.375Y-1.7344
X6.375Y-2.0156
X6.375Y-2.4844
X6.375Y-2.7656
X6.375Y-3.2344
X6.375Y-3.5156
X6.375Y-3.6562
X6.375Y-3.75
X6.4219Y-3.8438
X6.6562Y-4.3125
X6.6562Y-4.5
X6.75Y-3.75
X6.8438Y-4.3125
X6.8438Y-4.5
T3
X6.9836Y-3.6
X6.9836Y-3.9
T2
G00X1.7171Y-4.775
M15
G01X1.7329Y-4.775
M16
G05
G00X1.7671Y-4.675
M15
G01X1.7829Y-4.675
M16
G05
G00X1.9671Y-4.675
M15
G01X1.9829Y-4.675
M16
G05
G00X2.0171Y-4.775
M15
G01X2.0329Y-4.775
M16
G05
G00X2.0921Y-1.775
M15
G01X2.1079Y-1.775
M16
G05
G00X2.0921Y-2.525
M15
G01X2.1079Y-2.525
M16
G05
G00X2.0921Y-3.275
M15
G01X2.1079Y-3.275
M16
G05
G00X2.1421Y-1.675
M15
G01X2.1579Y-1.675
M16
G05
G00X2.1421Y-2.425
M15
G01X2.1579Y-2.425
M16
G05
G00X2.1421Y-3.175
M15
G01X2.1579Y-3.175
M16
G05
G00X2.3421Y-1.675
M15
G01X2.3579Y-1.675
M16
G05
G00X2.3421Y-2.425
M15
G01X2.3579Y-2.425
M16
G05
G00X2.3421Y-3.175
M15
G01X2.3579Y-3.175
M16
G05
G00X2.3921Y-1.775
M15
G01X2.4079Y-1.775
M16
G05
G00X2.3921Y-2.525
M15
G01X2.4079Y-2.525
M16
G05
G00X2.3921Y-3.275
M15
G01X2.4079Y-3.275
M16
G05
G00X2.8421Y-1.5875
M15
G01X2.8579Y-1.5875
M16
G05
G00X2.8421Y-2.3375
M15
G01X2.8579Y-2.3375
M16
G05
G00X2.8421Y-3.0875
M15
G01X2.8579Y-3.0875
M16
G05
G00X2.8921Y-1.4875
M15
G01X2.9079Y-1.4875
M16
G05
G00X2.8921Y-2.2375
M15
G01X2.9079Y-2.2375
M16
G05
G00X2.8921Y-2.9875
M15
G01X2.9079Y-2.9875
M16
G05
G00X3.0921Y-1.4875
M15
G01X3.1079Y-1.4875
M16
G05
G00X3.0921Y-2.2375
M15
G01X3.1079Y-2.2375
M16
G05
G00X3.0921Y-2.9875
M15
G01X3.1079Y-2.9875
M16
G05
G00X3.1421Y-1.5875
M15
G01X3.1579Y-1.5875
M16
G05
G00X3.1421Y-2.3375
M15
G01X3.1579Y-2.3375
M16
G05
G00X3.1421Y-3.0875
M15
G01X3.1579Y-3.0875
M16
G05
G00X3.2171Y-5.9
M15
G01X3.2329Y-5.9
M16
G05
G00X3.2671Y-5.8
M15
G01X3.2829Y-5.8
M16
G05
G00X3.4671Y-5.8
M15
G01X3.4829Y-5.8
M16
G05
G00X3.5171Y-5.9
M15
G01X3.5329Y-5.9
M16
G05
G00X3.5921Y-1.2125
M15
G01X3.6079Y-1.2125
M16
G05
G00X3.5921Y-1.9625
M15
G01X3.6079Y-1.9625
M16
G05
G00X3.5921Y-2.7125
M15
G01X3.6079Y-2.7125
M16
G05
G00X3.6421Y-1.1125
M15
G01X3.6579Y-1.1125
M16
G05
G00X3.6421Y-1.8625
M15
G01X3.6579Y-1.8625
M16
G05
G00X3.6421Y-2.6125
M15
G01X3.6579Y-2.6125
M16
G05
G00X3.8421Y-1.1125
M15
G01X3.8579Y-1.1125
M16
G05
G00X3.8421Y-1.8625
M15
G01X3.8579Y-1.8625
M16
G05
G00X3.8421Y-2.6125
M15
G01X3.8579Y-2.6125
M16
G05
G00X3.8921Y-1.2125
M15
G01X3.9079Y-1.2125
M16
G05
G00X3.8921Y-1.9625
M15
G01X3.9079Y-1.9625
M16
G05
G00X3.8921Y-2.7125
M15
G01X3.9079Y-2.7125
M16
G05
G00X4.3421Y-1.2125
M15
G01X4.3579Y-1.2125
M16
G05
G00X4.3421Y-1.9625
M15
G01X4.3579Y-1.9625
M16
G05
G00X4.3421Y-2.7125
M15
G01X4.3579Y-2.7125
M16
G05
G00X4.3921Y-1.1125
M15
G01X4.4079Y-1.1125
M16
G05
G00X4.3921Y-1.8625
M15
G01X4.4079Y-1.8625
M16
G05
G00X4.3921Y-2.6125
M15
G01X4.4079Y-2.6125
M16
G05
G00X4.5921Y-1.1125
M15
G01X4.6079Y-1.1125
M16
G05
G00X4.5921Y-1.8625
M15
G01X4.6079Y-1.8625
M16
G05
G00X4.5921Y-2.6125
M15
G01X4.6079Y-2.6125
M16
G05
G00X4.6011Y-3.7097
M15
G01X4.6122Y-3.7208
M16
G05
G00X4.6421Y-1.2125
M15
G01X4.6579Y-1.2125
M16
G05
G00X4.6421Y-1.9625
M15
G01X4.6579Y-1.9625
M16
G05
G00X4.6421Y-2.7125
M15
G01X4.6579Y-2.7125
M16
G05
G00X4.7071Y-3.6743
M15
G01X4.7183Y-3.6854
M16
G05
G00X4.8132Y-3.9218
M15
G01X4.8243Y-3.9329
M16
G05
G00X4.8486Y-3.8157
M15
G01X4.8597Y-3.8269
M16
G05
G00X4.8662Y-4.5052
M15
G01X4.8774Y-4.5163
M16
G05
G00X4.9723Y-4.4698
M15
G01X4.9834Y-4.4809
M16
G05
G00X5.0784Y-4.7173
M15
G01X5.0895Y-4.7284
M16
G05
G00X5.0921Y-1.5875
M15
G01X5.1079Y-1.5875
M16
G05
G00X5.0921Y-2.3375
M15
G01X5.1079Y-2.3375
M16
G05
G00X5.0921Y-3.0875
M15
G01X5.1079Y-3.0875
M16
G05
G00X5.1137Y-4.6112
M15
G01X5.1249Y-4.6224
M16
G05
G00X5.1421Y-1.4875
M15
G01X5.1579Y-1.4875
M16
G05
G00X5.1421Y-2.2375
M15
G01X5.1579Y-2.2375
M16
G05
G00X5.1421Y-2.9875
M15
G01X5.1579Y-2.9875
M16
G05
G00X5.3421Y-1.4875
M15
G01X5.3579Y-1.4875
M16
G05
G00X5.3421Y-2.2375
M15
G01X5.3579Y-2.2375
M16
G05
G00X5.3421Y-2.9875
M15
G01X5.3579Y-2.9875
M16
G05
G00X5.3921Y-1.5875
M15
G01X5.4079Y-1.5875
M16
G05
G00X5.3921Y-2.3375
M15
G01X5.4079Y-2.3375
M16
G05
G00X5.3921Y-3.0875
M15
G01X5.4079Y-3.0875
M16
G05
G00X5.3966Y-3.9748
M15
G01X5.4077Y-3.986
M16
G05
G00X5.3966Y-5.0355
M15
G01X5.4077Y-5.0466
M16
G05
G00X5.5026Y-3.9395
M15
G01X5.5138Y-3.9506
M16
G05
G00X5.5026Y-5.0001
M15
G01X5.5138Y-5.0113
M16
G05
G00X5.6087Y-4.187
M15
G01X5.6198Y-4.1981
M16
G05
G00X5.6087Y-5.2476
M15
G01X5.6198Y-5.2588
M16
G05
G00X5.6441Y-4.0809
M15
G01X5.6552Y-4.092
M16
G05
G00X5.6441Y-5.1416
M15
G01X5.6552Y-5.1527
M16
G05
G00X5.8421Y-1.775
M15
G01X5.8579Y-1.775
M16
G05
G00X5.8421Y-2.525
M15
G01X5.8579Y-2.525
M16
G05
G00X5.8421Y-3.275
M15
G01X5.8579Y-3.275
M16
G05
G00X5.8921Y-1.675
M15
G01X5.9079Y-1.675
M16
G05
G00X5.8921Y-2.425
M15
G01X5.9079Y-2.425
M16
G05
G00X5.8921Y-3.175
M15
G01X5.9079Y-3.175
M16
G05
G00X5.9269Y-4.5052
M15
G01X5.938Y-4.5163
M16
G05
G00X6.033Y-4.4698
M15
G01X6.0441Y-4.4809
M16
G05
G00X6.0921Y-1.675
M15
G01X6.1079Y-1.675
M16
G05
G00X6.0921Y-2.425
M15
G01X6.1079Y-2.425
M16
G05
G00X6.0921Y-3.175
M15
G01X6.1079Y-3.175
M16
G05
G00X6.139Y-4.7173
M15
G01X6.1502Y-4.7284
M16
G05
G00X6.1421Y-1.775
M15
G01X6.1579Y-1.775
M16
G05
G00X6.1421Y-2.525
M15
G01X6.1579Y-2.525
M16
G05
G00X6.1421Y-3.275
M15
G01X6.1579Y-3.275
M16
G05
G00X6.1744Y-4.6112
M15
G01X6.1855Y-4.6224
M16
G05
G00X6.1921Y-5.3007
M15
G01X6.2032Y-5.3118
M16
G05
G00X6.2981Y-5.2653
M15
G01X6.3093Y-5.2764
M16
G05
G00X6.4042Y-5.5128
M15
G01X6.4153Y-5.5239
M16
G05
G00X6.4396Y-5.4067
M15
G01X6.4507Y-5.4179
M16
G05
T0
M30
