G04 #@! TF.GenerationSoftware,KiCad,Pcbnew,(5.1.9)-1*
G04 #@! TF.CreationDate,2021-10-14T03:32:23+09:00*
G04 #@! TF.ProjectId,GraSPIntEx,47726153-5049-46e7-9445-782e6b696361,rev?*
G04 #@! TF.SameCoordinates,Original*
G04 #@! TF.FileFunction,Profile,NP*
%FSLAX46Y46*%
G04 Gerber Fmt 4.6, Leading zero omitted, Abs format (unit mm)*
G04 Created by KiCad (PCBNEW (5.1.9)-1) date 2021-10-14 03:32:23*
%MOMM*%
%LPD*%
G01*
G04 APERTURE LIST*
G04 #@! TA.AperFunction,Profile*
%ADD10C,0.150000*%
G04 #@! TD*
G04 #@! TA.AperFunction,Profile*
%ADD11C,0.120000*%
G04 #@! TD*
G04 APERTURE END LIST*
D10*
X98950000Y-85725000D02*
G75*
G03*
X98950000Y-85725000I-3700000J0D01*
G01*
X59659375Y-146446875D02*
G75*
G03*
X59659375Y-146446875I-3700000J0D01*
G01*
X114428125Y-166687500D02*
G75*
G03*
X114428125Y-166687500I-3700000J0D01*
G01*
X176340625Y-122634375D02*
G75*
G03*
X176340625Y-122634375I-3700000J0D01*
G01*
X176340625Y-71437500D02*
G75*
G03*
X176340625Y-71437500I-3700000J0D01*
G01*
X137050000Y-27384375D02*
G75*
G03*
X137050000Y-27384375I-3700000J0D01*
G01*
X81090625Y-27384375D02*
G75*
G03*
X81090625Y-27384375I-3700000J0D01*
G01*
X41800000Y-66675000D02*
G75*
G03*
X41800000Y-66675000I-3700000J0D01*
G01*
X185737500Y-95250000D02*
G75*
G03*
X185737500Y-95250000I-80962500J0D01*
G01*
D11*
G04 #@! TO.C,LED1*
X55350000Y-50837500D02*
X55350000Y-53937500D01*
X55350000Y-53937500D02*
X58950000Y-53937500D01*
X58950000Y-53937500D02*
X58950000Y-50837500D01*
X58950000Y-50837500D02*
X55350000Y-50837500D01*
G04 #@! TO.C,LED2*
X74400000Y-46075000D02*
X74400000Y-49175000D01*
X74400000Y-49175000D02*
X78000000Y-49175000D01*
X78000000Y-49175000D02*
X78000000Y-46075000D01*
X78000000Y-46075000D02*
X74400000Y-46075000D01*
G04 #@! TO.C,LED3*
X93450000Y-36550000D02*
X93450000Y-39650000D01*
X93450000Y-39650000D02*
X97050000Y-39650000D01*
X97050000Y-39650000D02*
X97050000Y-36550000D01*
X97050000Y-36550000D02*
X93450000Y-36550000D01*
G04 #@! TO.C,LED4*
X112500000Y-36550000D02*
X112500000Y-39650000D01*
X112500000Y-39650000D02*
X116100000Y-39650000D01*
X116100000Y-39650000D02*
X116100000Y-36550000D01*
X116100000Y-36550000D02*
X112500000Y-36550000D01*
G04 #@! TO.C,LED5*
X131550000Y-46075000D02*
X131550000Y-49175000D01*
X131550000Y-49175000D02*
X135150000Y-49175000D01*
X135150000Y-49175000D02*
X135150000Y-46075000D01*
X135150000Y-46075000D02*
X131550000Y-46075000D01*
G04 #@! TO.C,LED6*
X150600000Y-50837500D02*
X150600000Y-53937500D01*
X150600000Y-53937500D02*
X154200000Y-53937500D01*
X154200000Y-53937500D02*
X154200000Y-50837500D01*
X154200000Y-50837500D02*
X150600000Y-50837500D01*
G04 #@! TO.C,LED7*
X154200000Y-72987500D02*
X154200000Y-69887500D01*
X154200000Y-69887500D02*
X150600000Y-69887500D01*
X150600000Y-69887500D02*
X150600000Y-72987500D01*
X150600000Y-72987500D02*
X154200000Y-72987500D01*
G04 #@! TO.C,LED8*
X135150000Y-68225000D02*
X135150000Y-65125000D01*
X135150000Y-65125000D02*
X131550000Y-65125000D01*
X131550000Y-65125000D02*
X131550000Y-68225000D01*
X131550000Y-68225000D02*
X135150000Y-68225000D01*
G04 #@! TO.C,LED23*
X134921681Y-111328520D02*
X137113712Y-109136489D01*
X137113712Y-109136489D02*
X134568127Y-106590904D01*
X134568127Y-106590904D02*
X132376096Y-108782935D01*
X132376096Y-108782935D02*
X134921681Y-111328520D01*
G04 #@! TO.C,LED24*
X114716105Y-104593328D02*
X116908136Y-102401297D01*
X116908136Y-102401297D02*
X114362551Y-99855712D01*
X114362551Y-99855712D02*
X112170520Y-102047743D01*
X112170520Y-102047743D02*
X114716105Y-104593328D01*
G04 #@! TO.C,LED16*
X112500000Y-74650000D02*
X112500000Y-77750000D01*
X112500000Y-77750000D02*
X116100000Y-77750000D01*
X116100000Y-77750000D02*
X116100000Y-74650000D01*
X116100000Y-74650000D02*
X112500000Y-74650000D01*
G04 #@! TO.C,LED22*
X121451297Y-124798904D02*
X123643328Y-122606873D01*
X123643328Y-122606873D02*
X121097743Y-120061288D01*
X121097743Y-120061288D02*
X118905712Y-122253319D01*
X118905712Y-122253319D02*
X121451297Y-124798904D01*
G04 #@! TO.C,LED14*
X74400000Y-84175000D02*
X74400000Y-87275000D01*
X74400000Y-87275000D02*
X78000000Y-87275000D01*
X78000000Y-87275000D02*
X78000000Y-84175000D01*
X78000000Y-84175000D02*
X74400000Y-84175000D01*
G04 #@! TO.C,LED13*
X55350000Y-88937500D02*
X55350000Y-92037500D01*
X55350000Y-92037500D02*
X58950000Y-92037500D01*
X58950000Y-92037500D02*
X58950000Y-88937500D01*
X58950000Y-88937500D02*
X55350000Y-88937500D01*
G04 #@! TO.C,LED20*
X134921681Y-138269288D02*
X137113712Y-136077257D01*
X137113712Y-136077257D02*
X134568127Y-133531672D01*
X134568127Y-133531672D02*
X132376096Y-135723703D01*
X132376096Y-135723703D02*
X134921681Y-138269288D01*
G04 #@! TO.C,LED15*
X93450000Y-74650000D02*
X93450000Y-77750000D01*
X93450000Y-77750000D02*
X97050000Y-77750000D01*
X97050000Y-77750000D02*
X97050000Y-74650000D01*
X97050000Y-74650000D02*
X93450000Y-74650000D01*
G04 #@! TO.C,LED10*
X97050000Y-58700000D02*
X97050000Y-55600000D01*
X97050000Y-55600000D02*
X93450000Y-55600000D01*
X93450000Y-55600000D02*
X93450000Y-58700000D01*
X93450000Y-58700000D02*
X97050000Y-58700000D01*
G04 #@! TO.C,LED17*
X131550000Y-84175000D02*
X131550000Y-87275000D01*
X131550000Y-87275000D02*
X135150000Y-87275000D01*
X135150000Y-87275000D02*
X135150000Y-84175000D01*
X135150000Y-84175000D02*
X131550000Y-84175000D01*
G04 #@! TO.C,LED18*
X150600000Y-88937500D02*
X150600000Y-92037500D01*
X150600000Y-92037500D02*
X154200000Y-92037500D01*
X154200000Y-92037500D02*
X154200000Y-88937500D01*
X154200000Y-88937500D02*
X150600000Y-88937500D01*
G04 #@! TO.C,LED9*
X116100000Y-58700000D02*
X116100000Y-55600000D01*
X116100000Y-55600000D02*
X112500000Y-55600000D01*
X112500000Y-55600000D02*
X112500000Y-58700000D01*
X112500000Y-58700000D02*
X116100000Y-58700000D01*
G04 #@! TO.C,LED11*
X78000000Y-68225000D02*
X78000000Y-65125000D01*
X78000000Y-65125000D02*
X74400000Y-65125000D01*
X74400000Y-65125000D02*
X74400000Y-68225000D01*
X74400000Y-68225000D02*
X78000000Y-68225000D01*
G04 #@! TO.C,LED19*
X155127257Y-145004480D02*
X157319288Y-142812449D01*
X157319288Y-142812449D02*
X154773703Y-140266864D01*
X154773703Y-140266864D02*
X152581672Y-142458895D01*
X152581672Y-142458895D02*
X155127257Y-145004480D01*
G04 #@! TO.C,LED12*
X58950000Y-72987500D02*
X58950000Y-69887500D01*
X58950000Y-69887500D02*
X55350000Y-69887500D01*
X55350000Y-69887500D02*
X55350000Y-72987500D01*
X55350000Y-72987500D02*
X58950000Y-72987500D01*
G04 #@! TO.C,LED21*
X148392065Y-124798904D02*
X150584096Y-122606873D01*
X150584096Y-122606873D02*
X148038511Y-120061288D01*
X148038511Y-120061288D02*
X145846480Y-122253319D01*
X145846480Y-122253319D02*
X148392065Y-124798904D01*
G04 #@! TO.C,LED25*
X45825000Y-127037500D02*
X45825000Y-130137500D01*
X45825000Y-130137500D02*
X49425000Y-130137500D01*
X49425000Y-130137500D02*
X49425000Y-127037500D01*
X49425000Y-127037500D02*
X45825000Y-127037500D01*
G04 #@! TO.C,LED26*
X83925000Y-155612500D02*
X83925000Y-158712500D01*
X83925000Y-158712500D02*
X87525000Y-158712500D01*
X87525000Y-158712500D02*
X87525000Y-155612500D01*
X87525000Y-155612500D02*
X83925000Y-155612500D01*
G04 #@! TD*
M02*
