M48
; DRILL file {KiCad (5.1.9)-1} date 10/14/21 03:32:47
; FORMAT={-:-/ absolute / inch / decimal}
; #@! TF.CreationDate,2021-10-14T03:32:47+09:00
; #@! TF.GenerationSoftware,Kicad,Pcbnew,(5.1.9)-1
; #@! TF.FileFunction,NonPlated,1,2,NPTH
FMAT,2
INCH
T1C0.0748
T2C0.1575
%
G90
G05
T1
X1.675Y-4.875
X2.05Y-1.875
X2.05Y-2.625
X2.05Y-3.375
X2.075Y-4.875
X2.45Y-1.875
X2.45Y-2.625
X2.45Y-3.375
X2.8Y-1.6875
X2.8Y-2.4375
X2.8Y-3.1875
X3.175Y-6.0
X3.2Y-1.6875
X3.2Y-2.4375
X3.2Y-3.1875
X3.55Y-1.3125
X3.55Y-2.0625
X3.55Y-2.8125
X3.575Y-6.0
X3.95Y-1.3125
X3.95Y-2.0625
X3.95Y-2.8125
X4.3Y-1.3125
X4.3Y-2.0625
X4.3Y-2.8125
X4.5006Y-3.7506
X4.7Y-1.3125
X4.7Y-2.0625
X4.7Y-2.8125
X4.7657Y-4.5461
X4.7834Y-4.0334
X5.0486Y-4.8289
X5.05Y-1.6875
X5.05Y-2.4375
X5.05Y-3.1875
X5.2961Y-4.0157
X5.2961Y-5.0764
X5.45Y-1.6875
X5.45Y-2.4375
X5.45Y-3.1875
X5.5789Y-4.2986
X5.5789Y-5.3593
X5.8Y-1.875
X5.8Y-2.625
X5.8Y-3.375
X5.8264Y-4.5461
X6.0916Y-5.3416
X6.1093Y-4.8289
X6.2Y-1.875
X6.2Y-2.625
X6.2Y-3.375
X6.3744Y-5.6244
T2
X1.875Y-4.875
X2.25Y-1.875
X2.25Y-2.625
X2.25Y-3.375
X3.0Y-1.6875
X3.0Y-2.4375
X3.0Y-3.1875
X3.375Y-6.0
X3.75Y-1.3125
X3.75Y-2.0625
X3.75Y-2.8125
X4.5Y-1.3125
X4.5Y-2.0625
X4.5Y-2.8125
X4.642Y-3.892
X4.9072Y-4.6875
X5.25Y-1.6875
X5.25Y-2.4375
X5.25Y-3.1875
X5.4375Y-4.1572
X5.4375Y-5.2178
X5.9678Y-4.6875
X6.0Y-1.875
X6.0Y-2.625
X6.0Y-3.375
X6.233Y-5.483
T0
M30
