G04 #@! TF.GenerationSoftware,KiCad,Pcbnew,(5.1.9)-1*
G04 #@! TF.CreationDate,2021-10-14T03:32:23+09:00*
G04 #@! TF.ProjectId,GraSPIntEx,47726153-5049-46e7-9445-782e6b696361,rev?*
G04 #@! TF.SameCoordinates,Original*
G04 #@! TF.FileFunction,Soldermask,Bot*
G04 #@! TF.FilePolarity,Negative*
%FSLAX46Y46*%
G04 Gerber Fmt 4.6, Leading zero omitted, Abs format (unit mm)*
G04 Created by KiCad (PCBNEW (5.1.9)-1) date 2021-10-14 03:32:23*
%MOMM*%
%LPD*%
G01*
G04 APERTURE LIST*
%ADD10C,4.000000*%
%ADD11C,1.900000*%
%ADD12R,6.350000X0.760000*%
%ADD13R,0.750000X1.200000*%
%ADD14R,1.000000X1.500000*%
%ADD15C,0.100000*%
%ADD16C,1.625000*%
%ADD17R,1.700000X1.000000*%
G04 APERTURE END LIST*
D10*
G04 #@! TO.C,SW18*
X152400000Y-85725000D03*
D11*
X147320000Y-85725000D03*
X157480000Y-85725000D03*
G04 #@! TD*
D10*
G04 #@! TO.C,SW25*
X47625000Y-123825000D03*
D11*
X42545000Y-123825000D03*
X52705000Y-123825000D03*
G04 #@! TD*
D10*
G04 #@! TO.C,SW5*
X133350000Y-42862500D03*
D11*
X128270000Y-42862500D03*
X138430000Y-42862500D03*
G04 #@! TD*
D10*
G04 #@! TO.C,SW20*
X138112500Y-105592116D03*
D11*
X134520398Y-102000014D03*
X141704602Y-109184218D03*
G04 #@! TD*
D10*
G04 #@! TO.C,SW6*
X152400000Y-47625000D03*
D11*
X147320000Y-47625000D03*
X157480000Y-47625000D03*
G04 #@! TD*
D10*
G04 #@! TO.C,SW17*
X133350000Y-80962500D03*
D11*
X128270000Y-80962500D03*
X138430000Y-80962500D03*
G04 #@! TD*
D10*
G04 #@! TO.C,SW9*
X95250000Y-52387500D03*
D11*
X90170000Y-52387500D03*
X100330000Y-52387500D03*
G04 #@! TD*
D10*
G04 #@! TO.C,SW11*
X133350000Y-61912500D03*
D11*
X128270000Y-61912500D03*
X138430000Y-61912500D03*
G04 #@! TD*
D10*
G04 #@! TO.C,SW14*
X76200000Y-80962500D03*
D11*
X71120000Y-80962500D03*
X81280000Y-80962500D03*
G04 #@! TD*
D10*
G04 #@! TO.C,SW7*
X57150000Y-66675000D03*
D11*
X52070000Y-66675000D03*
X62230000Y-66675000D03*
G04 #@! TD*
D10*
G04 #@! TO.C,SW15*
X95250000Y-71437500D03*
D11*
X90170000Y-71437500D03*
X100330000Y-71437500D03*
G04 #@! TD*
D12*
G04 #@! TO.C,J2*
X167159500Y-97155000D03*
X167159500Y-95885000D03*
X167159500Y-94615000D03*
X167159500Y-93345000D03*
G04 #@! TD*
D10*
G04 #@! TO.C,SW3*
X95250000Y-33337500D03*
D11*
X90170000Y-33337500D03*
X100330000Y-33337500D03*
G04 #@! TD*
D10*
G04 #@! TO.C,SW16*
X114300000Y-71437500D03*
D11*
X109220000Y-71437500D03*
X119380000Y-71437500D03*
G04 #@! TD*
D10*
G04 #@! TO.C,SW23*
X138112500Y-132532884D03*
D11*
X134520398Y-128940782D03*
X141704602Y-136124986D03*
G04 #@! TD*
D10*
G04 #@! TO.C,SW13*
X57150000Y-85725000D03*
D11*
X52070000Y-85725000D03*
X62230000Y-85725000D03*
G04 #@! TD*
G04 #@! TO.C,R3*
G36*
G01*
X171800000Y-109775000D02*
X171800000Y-109300000D01*
G75*
G02*
X172037500Y-109062500I237500J0D01*
G01*
X172612500Y-109062500D01*
G75*
G02*
X172850000Y-109300000I0J-237500D01*
G01*
X172850000Y-109775000D01*
G75*
G02*
X172612500Y-110012500I-237500J0D01*
G01*
X172037500Y-110012500D01*
G75*
G02*
X171800000Y-109775000I0J237500D01*
G01*
G37*
G36*
G01*
X170050000Y-109775000D02*
X170050000Y-109300000D01*
G75*
G02*
X170287500Y-109062500I237500J0D01*
G01*
X170862500Y-109062500D01*
G75*
G02*
X171100000Y-109300000I0J-237500D01*
G01*
X171100000Y-109775000D01*
G75*
G02*
X170862500Y-110012500I-237500J0D01*
G01*
X170287500Y-110012500D01*
G75*
G02*
X170050000Y-109775000I0J237500D01*
G01*
G37*
G04 #@! TD*
D10*
G04 #@! TO.C,SW1*
X57150000Y-47625000D03*
D11*
X52070000Y-47625000D03*
X62230000Y-47625000D03*
G04 #@! TD*
D10*
G04 #@! TO.C,SW2*
X76200000Y-42862500D03*
D11*
X71120000Y-42862500D03*
X81280000Y-42862500D03*
G04 #@! TD*
D10*
G04 #@! TO.C,SW4*
X114300000Y-33337500D03*
D11*
X109220000Y-33337500D03*
X119380000Y-33337500D03*
G04 #@! TD*
D10*
G04 #@! TO.C,SW21*
X124642116Y-119062500D03*
D11*
X121050014Y-115470398D03*
X128234218Y-122654602D03*
G04 #@! TD*
D10*
G04 #@! TO.C,SW10*
X114300000Y-52387500D03*
D11*
X109220000Y-52387500D03*
X119380000Y-52387500D03*
G04 #@! TD*
D10*
G04 #@! TO.C,SW8*
X76200000Y-61912500D03*
D11*
X71120000Y-61912500D03*
X81280000Y-61912500D03*
G04 #@! TD*
D10*
G04 #@! TO.C,SW22*
X151582884Y-119062500D03*
D11*
X147990782Y-115470398D03*
X155174986Y-122654602D03*
G04 #@! TD*
D10*
G04 #@! TO.C,SW26*
X85725000Y-152400000D03*
D11*
X80645000Y-152400000D03*
X90805000Y-152400000D03*
G04 #@! TD*
D10*
G04 #@! TO.C,SW19*
X117906924Y-98856924D03*
D11*
X114314822Y-95264822D03*
X121499026Y-102449026D03*
G04 #@! TD*
G04 #@! TO.C,U2*
G36*
G01*
X29781500Y-112903000D02*
X30543500Y-112903000D01*
G75*
G02*
X30924500Y-113284000I0J-381000D01*
G01*
X30924500Y-114046000D01*
G75*
G02*
X30543500Y-114427000I-381000J0D01*
G01*
X29781500Y-114427000D01*
G75*
G02*
X29400500Y-114046000I0J381000D01*
G01*
X29400500Y-113284000D01*
G75*
G02*
X29781500Y-112903000I381000J0D01*
G01*
G37*
G36*
G01*
X32321500Y-112903000D02*
X33083500Y-112903000D01*
G75*
G02*
X33464500Y-113284000I0J-381000D01*
G01*
X33464500Y-114046000D01*
G75*
G02*
X33083500Y-114427000I-381000J0D01*
G01*
X32321500Y-114427000D01*
G75*
G02*
X31940500Y-114046000I0J381000D01*
G01*
X31940500Y-113284000D01*
G75*
G02*
X32321500Y-112903000I381000J0D01*
G01*
G37*
G36*
G01*
X34861500Y-112903000D02*
X35623500Y-112903000D01*
G75*
G02*
X36004500Y-113284000I0J-381000D01*
G01*
X36004500Y-114046000D01*
G75*
G02*
X35623500Y-114427000I-381000J0D01*
G01*
X34861500Y-114427000D01*
G75*
G02*
X34480500Y-114046000I0J381000D01*
G01*
X34480500Y-113284000D01*
G75*
G02*
X34861500Y-112903000I381000J0D01*
G01*
G37*
G36*
G01*
X37401500Y-112903000D02*
X38163500Y-112903000D01*
G75*
G02*
X38544500Y-113284000I0J-381000D01*
G01*
X38544500Y-114046000D01*
G75*
G02*
X38163500Y-114427000I-381000J0D01*
G01*
X37401500Y-114427000D01*
G75*
G02*
X37020500Y-114046000I0J381000D01*
G01*
X37020500Y-113284000D01*
G75*
G02*
X37401500Y-112903000I381000J0D01*
G01*
G37*
G36*
G01*
X39941500Y-112903000D02*
X40703500Y-112903000D01*
G75*
G02*
X41084500Y-113284000I0J-381000D01*
G01*
X41084500Y-114046000D01*
G75*
G02*
X40703500Y-114427000I-381000J0D01*
G01*
X39941500Y-114427000D01*
G75*
G02*
X39560500Y-114046000I0J381000D01*
G01*
X39560500Y-113284000D01*
G75*
G02*
X39941500Y-112903000I381000J0D01*
G01*
G37*
G36*
G01*
X42481500Y-112903000D02*
X43243500Y-112903000D01*
G75*
G02*
X43624500Y-113284000I0J-381000D01*
G01*
X43624500Y-114046000D01*
G75*
G02*
X43243500Y-114427000I-381000J0D01*
G01*
X42481500Y-114427000D01*
G75*
G02*
X42100500Y-114046000I0J381000D01*
G01*
X42100500Y-113284000D01*
G75*
G02*
X42481500Y-112903000I381000J0D01*
G01*
G37*
G36*
G01*
X45021500Y-112903000D02*
X45783500Y-112903000D01*
G75*
G02*
X46164500Y-113284000I0J-381000D01*
G01*
X46164500Y-114046000D01*
G75*
G02*
X45783500Y-114427000I-381000J0D01*
G01*
X45021500Y-114427000D01*
G75*
G02*
X44640500Y-114046000I0J381000D01*
G01*
X44640500Y-113284000D01*
G75*
G02*
X45021500Y-112903000I381000J0D01*
G01*
G37*
G36*
G01*
X47561500Y-112903000D02*
X48323500Y-112903000D01*
G75*
G02*
X48704500Y-113284000I0J-381000D01*
G01*
X48704500Y-114046000D01*
G75*
G02*
X48323500Y-114427000I-381000J0D01*
G01*
X47561500Y-114427000D01*
G75*
G02*
X47180500Y-114046000I0J381000D01*
G01*
X47180500Y-113284000D01*
G75*
G02*
X47561500Y-112903000I381000J0D01*
G01*
G37*
G36*
G01*
X50101500Y-112903000D02*
X50863500Y-112903000D01*
G75*
G02*
X51244500Y-113284000I0J-381000D01*
G01*
X51244500Y-114046000D01*
G75*
G02*
X50863500Y-114427000I-381000J0D01*
G01*
X50101500Y-114427000D01*
G75*
G02*
X49720500Y-114046000I0J381000D01*
G01*
X49720500Y-113284000D01*
G75*
G02*
X50101500Y-112903000I381000J0D01*
G01*
G37*
G36*
G01*
X52641500Y-112903000D02*
X53403500Y-112903000D01*
G75*
G02*
X53784500Y-113284000I0J-381000D01*
G01*
X53784500Y-114046000D01*
G75*
G02*
X53403500Y-114427000I-381000J0D01*
G01*
X52641500Y-114427000D01*
G75*
G02*
X52260500Y-114046000I0J381000D01*
G01*
X52260500Y-113284000D01*
G75*
G02*
X52641500Y-112903000I381000J0D01*
G01*
G37*
G36*
G01*
X55181500Y-112903000D02*
X55943500Y-112903000D01*
G75*
G02*
X56324500Y-113284000I0J-381000D01*
G01*
X56324500Y-114046000D01*
G75*
G02*
X55943500Y-114427000I-381000J0D01*
G01*
X55181500Y-114427000D01*
G75*
G02*
X54800500Y-114046000I0J381000D01*
G01*
X54800500Y-113284000D01*
G75*
G02*
X55181500Y-112903000I381000J0D01*
G01*
G37*
G36*
G01*
X57721500Y-112903000D02*
X58483500Y-112903000D01*
G75*
G02*
X58864500Y-113284000I0J-381000D01*
G01*
X58864500Y-114046000D01*
G75*
G02*
X58483500Y-114427000I-381000J0D01*
G01*
X57721500Y-114427000D01*
G75*
G02*
X57340500Y-114046000I0J381000D01*
G01*
X57340500Y-113284000D01*
G75*
G02*
X57721500Y-112903000I381000J0D01*
G01*
G37*
G36*
G01*
X57721500Y-95123000D02*
X58483500Y-95123000D01*
G75*
G02*
X58864500Y-95504000I0J-381000D01*
G01*
X58864500Y-96266000D01*
G75*
G02*
X58483500Y-96647000I-381000J0D01*
G01*
X57721500Y-96647000D01*
G75*
G02*
X57340500Y-96266000I0J381000D01*
G01*
X57340500Y-95504000D01*
G75*
G02*
X57721500Y-95123000I381000J0D01*
G01*
G37*
G36*
G01*
X55181500Y-95123000D02*
X55943500Y-95123000D01*
G75*
G02*
X56324500Y-95504000I0J-381000D01*
G01*
X56324500Y-96266000D01*
G75*
G02*
X55943500Y-96647000I-381000J0D01*
G01*
X55181500Y-96647000D01*
G75*
G02*
X54800500Y-96266000I0J381000D01*
G01*
X54800500Y-95504000D01*
G75*
G02*
X55181500Y-95123000I381000J0D01*
G01*
G37*
G36*
G01*
X52641500Y-95123000D02*
X53403500Y-95123000D01*
G75*
G02*
X53784500Y-95504000I0J-381000D01*
G01*
X53784500Y-96266000D01*
G75*
G02*
X53403500Y-96647000I-381000J0D01*
G01*
X52641500Y-96647000D01*
G75*
G02*
X52260500Y-96266000I0J381000D01*
G01*
X52260500Y-95504000D01*
G75*
G02*
X52641500Y-95123000I381000J0D01*
G01*
G37*
G36*
G01*
X50101500Y-95123000D02*
X50863500Y-95123000D01*
G75*
G02*
X51244500Y-95504000I0J-381000D01*
G01*
X51244500Y-96266000D01*
G75*
G02*
X50863500Y-96647000I-381000J0D01*
G01*
X50101500Y-96647000D01*
G75*
G02*
X49720500Y-96266000I0J381000D01*
G01*
X49720500Y-95504000D01*
G75*
G02*
X50101500Y-95123000I381000J0D01*
G01*
G37*
G36*
G01*
X47561500Y-95123000D02*
X48323500Y-95123000D01*
G75*
G02*
X48704500Y-95504000I0J-381000D01*
G01*
X48704500Y-96266000D01*
G75*
G02*
X48323500Y-96647000I-381000J0D01*
G01*
X47561500Y-96647000D01*
G75*
G02*
X47180500Y-96266000I0J381000D01*
G01*
X47180500Y-95504000D01*
G75*
G02*
X47561500Y-95123000I381000J0D01*
G01*
G37*
G36*
G01*
X45021500Y-95123000D02*
X45783500Y-95123000D01*
G75*
G02*
X46164500Y-95504000I0J-381000D01*
G01*
X46164500Y-96266000D01*
G75*
G02*
X45783500Y-96647000I-381000J0D01*
G01*
X45021500Y-96647000D01*
G75*
G02*
X44640500Y-96266000I0J381000D01*
G01*
X44640500Y-95504000D01*
G75*
G02*
X45021500Y-95123000I381000J0D01*
G01*
G37*
G36*
G01*
X42481500Y-95123000D02*
X43243500Y-95123000D01*
G75*
G02*
X43624500Y-95504000I0J-381000D01*
G01*
X43624500Y-96266000D01*
G75*
G02*
X43243500Y-96647000I-381000J0D01*
G01*
X42481500Y-96647000D01*
G75*
G02*
X42100500Y-96266000I0J381000D01*
G01*
X42100500Y-95504000D01*
G75*
G02*
X42481500Y-95123000I381000J0D01*
G01*
G37*
G36*
G01*
X39941500Y-95123000D02*
X40703500Y-95123000D01*
G75*
G02*
X41084500Y-95504000I0J-381000D01*
G01*
X41084500Y-96266000D01*
G75*
G02*
X40703500Y-96647000I-381000J0D01*
G01*
X39941500Y-96647000D01*
G75*
G02*
X39560500Y-96266000I0J381000D01*
G01*
X39560500Y-95504000D01*
G75*
G02*
X39941500Y-95123000I381000J0D01*
G01*
G37*
G36*
G01*
X37401500Y-95123000D02*
X38163500Y-95123000D01*
G75*
G02*
X38544500Y-95504000I0J-381000D01*
G01*
X38544500Y-96266000D01*
G75*
G02*
X38163500Y-96647000I-381000J0D01*
G01*
X37401500Y-96647000D01*
G75*
G02*
X37020500Y-96266000I0J381000D01*
G01*
X37020500Y-95504000D01*
G75*
G02*
X37401500Y-95123000I381000J0D01*
G01*
G37*
G36*
G01*
X34861500Y-95123000D02*
X35623500Y-95123000D01*
G75*
G02*
X36004500Y-95504000I0J-381000D01*
G01*
X36004500Y-96266000D01*
G75*
G02*
X35623500Y-96647000I-381000J0D01*
G01*
X34861500Y-96647000D01*
G75*
G02*
X34480500Y-96266000I0J381000D01*
G01*
X34480500Y-95504000D01*
G75*
G02*
X34861500Y-95123000I381000J0D01*
G01*
G37*
G36*
G01*
X32321500Y-95123000D02*
X33083500Y-95123000D01*
G75*
G02*
X33464500Y-95504000I0J-381000D01*
G01*
X33464500Y-96266000D01*
G75*
G02*
X33083500Y-96647000I-381000J0D01*
G01*
X32321500Y-96647000D01*
G75*
G02*
X31940500Y-96266000I0J381000D01*
G01*
X31940500Y-95504000D01*
G75*
G02*
X32321500Y-95123000I381000J0D01*
G01*
G37*
G36*
G01*
X29781500Y-95123000D02*
X30543500Y-95123000D01*
G75*
G02*
X30924500Y-95504000I0J-381000D01*
G01*
X30924500Y-96266000D01*
G75*
G02*
X30543500Y-96647000I-381000J0D01*
G01*
X29781500Y-96647000D01*
G75*
G02*
X29400500Y-96266000I0J381000D01*
G01*
X29400500Y-95504000D01*
G75*
G02*
X29781500Y-95123000I381000J0D01*
G01*
G37*
G04 #@! TD*
D10*
G04 #@! TO.C,SW12*
X152400000Y-66675000D03*
D11*
X147320000Y-66675000D03*
X157480000Y-66675000D03*
G04 #@! TD*
G04 #@! TO.C,R4*
G36*
G01*
X171800000Y-114537500D02*
X171800000Y-114062500D01*
G75*
G02*
X172037500Y-113825000I237500J0D01*
G01*
X172612500Y-113825000D01*
G75*
G02*
X172850000Y-114062500I0J-237500D01*
G01*
X172850000Y-114537500D01*
G75*
G02*
X172612500Y-114775000I-237500J0D01*
G01*
X172037500Y-114775000D01*
G75*
G02*
X171800000Y-114537500I0J237500D01*
G01*
G37*
G36*
G01*
X170050000Y-114537500D02*
X170050000Y-114062500D01*
G75*
G02*
X170287500Y-113825000I237500J0D01*
G01*
X170862500Y-113825000D01*
G75*
G02*
X171100000Y-114062500I0J-237500D01*
G01*
X171100000Y-114537500D01*
G75*
G02*
X170862500Y-114775000I-237500J0D01*
G01*
X170287500Y-114775000D01*
G75*
G02*
X170050000Y-114537500I0J237500D01*
G01*
G37*
G04 #@! TD*
D10*
G04 #@! TO.C,SW24*
X158318076Y-139268076D03*
D11*
X154725974Y-135675974D03*
X161910178Y-142860178D03*
G04 #@! TD*
D13*
G04 #@! TO.C,D12*
X161925000Y-45925000D03*
X161925000Y-49325000D03*
G04 #@! TD*
G04 #@! TO.C,D4*
X85725000Y-41162500D03*
X85725000Y-44562500D03*
G04 #@! TD*
G04 #@! TO.C,D30*
X104775000Y-69737500D03*
X104775000Y-73137500D03*
G04 #@! TD*
G04 #@! TO.C,D10*
X142875000Y-41162500D03*
X142875000Y-44562500D03*
G04 #@! TD*
G04 #@! TO.C,D20*
X123825000Y-50687500D03*
X123825000Y-54087500D03*
G04 #@! TD*
G04 #@! TO.C,D16*
X85725000Y-60212500D03*
X85725000Y-63612500D03*
G04 #@! TD*
G04 #@! TO.C,D18*
X104775000Y-50687500D03*
X104775000Y-54087500D03*
G04 #@! TD*
G04 #@! TO.C,D6*
X104775000Y-31637500D03*
X104775000Y-35037500D03*
G04 #@! TD*
G04 #@! TO.C,D2*
X66675000Y-45925000D03*
X66675000Y-49325000D03*
G04 #@! TD*
G04 #@! TO.C,D26*
X66675000Y-84025000D03*
X66675000Y-87425000D03*
G04 #@! TD*
G04 #@! TO.C,D8*
X123825000Y-31637500D03*
X123825000Y-35037500D03*
G04 #@! TD*
G04 #@! TO.C,D14*
X66675000Y-64975000D03*
X66675000Y-68375000D03*
G04 #@! TD*
G04 #@! TO.C,D22*
X142875000Y-60212500D03*
X142875000Y-63612500D03*
G04 #@! TD*
G04 #@! TO.C,D28*
X85725000Y-79262500D03*
X85725000Y-82662500D03*
G04 #@! TD*
G04 #@! TO.C,D24*
X161925000Y-64975000D03*
X161925000Y-68375000D03*
G04 #@! TD*
G04 #@! TO.C,D32*
X123825000Y-69737500D03*
X123825000Y-73137500D03*
G04 #@! TD*
G04 #@! TO.C,D36*
X161925000Y-84025000D03*
X161925000Y-87425000D03*
G04 #@! TD*
G04 #@! TO.C,D38*
X100012500Y-107837500D03*
X100012500Y-111237500D03*
G04 #@! TD*
G04 #@! TO.C,D40*
X109537500Y-107837500D03*
X109537500Y-111237500D03*
G04 #@! TD*
G04 #@! TO.C,D42*
X100012500Y-117362500D03*
X100012500Y-120762500D03*
G04 #@! TD*
G04 #@! TO.C,D44*
X147637500Y-145937500D03*
X147637500Y-149337500D03*
G04 #@! TD*
G04 #@! TO.C,D46*
X138112500Y-155462500D03*
X138112500Y-158862500D03*
G04 #@! TD*
G04 #@! TO.C,D48*
X147637500Y-155462500D03*
X147637500Y-158862500D03*
G04 #@! TD*
G04 #@! TO.C,D34*
X142875000Y-79262500D03*
X142875000Y-82662500D03*
G04 #@! TD*
G04 #@! TO.C,D50*
X57150000Y-122125000D03*
X57150000Y-125525000D03*
G04 #@! TD*
G04 #@! TO.C,D52*
X95250000Y-150700000D03*
X95250000Y-154100000D03*
G04 #@! TD*
D14*
G04 #@! TO.C,JP2*
X35718750Y-86915625D03*
D15*
G36*
X37018750Y-86166227D02*
G01*
X37043284Y-86166227D01*
X37092115Y-86171037D01*
X37140240Y-86180609D01*
X37187195Y-86194853D01*
X37232528Y-86213630D01*
X37275801Y-86236761D01*
X37316600Y-86264021D01*
X37354529Y-86295149D01*
X37389226Y-86329846D01*
X37420354Y-86367775D01*
X37447614Y-86408574D01*
X37470745Y-86451847D01*
X37489522Y-86497180D01*
X37503766Y-86544135D01*
X37513338Y-86592260D01*
X37518148Y-86641091D01*
X37518148Y-86665625D01*
X37518750Y-86665625D01*
X37518750Y-87165625D01*
X37518148Y-87165625D01*
X37518148Y-87190159D01*
X37513338Y-87238990D01*
X37503766Y-87287115D01*
X37489522Y-87334070D01*
X37470745Y-87379403D01*
X37447614Y-87422676D01*
X37420354Y-87463475D01*
X37389226Y-87501404D01*
X37354529Y-87536101D01*
X37316600Y-87567229D01*
X37275801Y-87594489D01*
X37232528Y-87617620D01*
X37187195Y-87636397D01*
X37140240Y-87650641D01*
X37092115Y-87660213D01*
X37043284Y-87665023D01*
X37018750Y-87665023D01*
X37018750Y-87665625D01*
X36468750Y-87665625D01*
X36468750Y-86165625D01*
X37018750Y-86165625D01*
X37018750Y-86166227D01*
G37*
G36*
X34968750Y-87665625D02*
G01*
X34418750Y-87665625D01*
X34418750Y-87665023D01*
X34394216Y-87665023D01*
X34345385Y-87660213D01*
X34297260Y-87650641D01*
X34250305Y-87636397D01*
X34204972Y-87617620D01*
X34161699Y-87594489D01*
X34120900Y-87567229D01*
X34082971Y-87536101D01*
X34048274Y-87501404D01*
X34017146Y-87463475D01*
X33989886Y-87422676D01*
X33966755Y-87379403D01*
X33947978Y-87334070D01*
X33933734Y-87287115D01*
X33924162Y-87238990D01*
X33919352Y-87190159D01*
X33919352Y-87165625D01*
X33918750Y-87165625D01*
X33918750Y-86665625D01*
X33919352Y-86665625D01*
X33919352Y-86641091D01*
X33924162Y-86592260D01*
X33933734Y-86544135D01*
X33947978Y-86497180D01*
X33966755Y-86451847D01*
X33989886Y-86408574D01*
X34017146Y-86367775D01*
X34048274Y-86329846D01*
X34082971Y-86295149D01*
X34120900Y-86264021D01*
X34161699Y-86236761D01*
X34204972Y-86213630D01*
X34250305Y-86194853D01*
X34297260Y-86180609D01*
X34345385Y-86171037D01*
X34394216Y-86166227D01*
X34418750Y-86166227D01*
X34418750Y-86165625D01*
X34968750Y-86165625D01*
X34968750Y-87665625D01*
G37*
G04 #@! TD*
D16*
G04 #@! TO.C,J1*
X177384500Y-91440000D03*
X177384500Y-99060000D03*
G04 #@! TD*
D17*
G04 #@! TO.C,LED29*
X98000000Y-37400000D03*
X98000000Y-38800000D03*
X92500000Y-37400000D03*
X92500000Y-38800000D03*
G04 #@! TD*
G04 #@! TO.C,LED33*
X149650000Y-72137500D03*
X149650000Y-70737500D03*
X155150000Y-72137500D03*
X155150000Y-70737500D03*
G04 #@! TD*
G04 #@! TO.C,LED30*
X117050000Y-37400000D03*
X117050000Y-38800000D03*
X111550000Y-37400000D03*
X111550000Y-38800000D03*
G04 #@! TD*
G04 #@! TO.C,LED40*
X78950000Y-85025000D03*
X78950000Y-86425000D03*
X73450000Y-85025000D03*
X73450000Y-86425000D03*
G04 #@! TD*
G04 #@! TO.C,LED42*
X117050000Y-75500000D03*
X117050000Y-76900000D03*
X111550000Y-75500000D03*
X111550000Y-76900000D03*
G04 #@! TD*
G04 #@! TO.C,LED44*
X155150000Y-89787500D03*
X155150000Y-91187500D03*
X149650000Y-89787500D03*
X149650000Y-91187500D03*
G04 #@! TD*
D15*
G04 #@! TO.C,LED46*
G36*
X133259980Y-134698398D02*
G01*
X132552873Y-135405505D01*
X131350792Y-134203424D01*
X132057899Y-133496317D01*
X133259980Y-134698398D01*
G37*
G36*
X134249929Y-133708449D02*
G01*
X133542822Y-134415556D01*
X132340741Y-133213475D01*
X133047848Y-132506368D01*
X134249929Y-133708449D01*
G37*
G36*
X137149067Y-138587485D02*
G01*
X136441960Y-139294592D01*
X135239879Y-138092511D01*
X135946986Y-137385404D01*
X137149067Y-138587485D01*
G37*
G36*
X138139016Y-137597536D02*
G01*
X137431909Y-138304643D01*
X136229828Y-137102562D01*
X136936935Y-136395455D01*
X138139016Y-137597536D01*
G37*
G04 #@! TD*
G04 #@! TO.C,LED48*
G36*
X119789596Y-121228014D02*
G01*
X119082489Y-121935121D01*
X117880408Y-120733040D01*
X118587515Y-120025933D01*
X119789596Y-121228014D01*
G37*
G36*
X120779545Y-120238065D02*
G01*
X120072438Y-120945172D01*
X118870357Y-119743091D01*
X119577464Y-119035984D01*
X120779545Y-120238065D01*
G37*
G36*
X123678683Y-125117101D02*
G01*
X122971576Y-125824208D01*
X121769495Y-124622127D01*
X122476602Y-123915020D01*
X123678683Y-125117101D01*
G37*
G36*
X124668632Y-124127152D02*
G01*
X123961525Y-124834259D01*
X122759444Y-123632178D01*
X123466551Y-122925071D01*
X124668632Y-124127152D01*
G37*
G04 #@! TD*
D17*
G04 #@! TO.C,LED51*
X50375000Y-127887500D03*
X50375000Y-129287500D03*
X44875000Y-127887500D03*
X44875000Y-129287500D03*
G04 #@! TD*
G04 #@! TO.C,LED32*
X155150000Y-51687500D03*
X155150000Y-53087500D03*
X149650000Y-51687500D03*
X149650000Y-53087500D03*
G04 #@! TD*
G04 #@! TO.C,LED34*
X130600000Y-67375000D03*
X130600000Y-65975000D03*
X136100000Y-67375000D03*
X136100000Y-65975000D03*
G04 #@! TD*
G04 #@! TO.C,LED28*
X78950000Y-46925000D03*
X78950000Y-48325000D03*
X73450000Y-46925000D03*
X73450000Y-48325000D03*
G04 #@! TD*
G04 #@! TO.C,LED31*
X136100000Y-46925000D03*
X136100000Y-48325000D03*
X130600000Y-46925000D03*
X130600000Y-48325000D03*
G04 #@! TD*
G04 #@! TO.C,LED35*
X111550000Y-57850000D03*
X111550000Y-56450000D03*
X117050000Y-57850000D03*
X117050000Y-56450000D03*
G04 #@! TD*
G04 #@! TO.C,LED27*
X59900000Y-51687500D03*
X59900000Y-53087500D03*
X54400000Y-51687500D03*
X54400000Y-53087500D03*
G04 #@! TD*
G04 #@! TO.C,LED36*
X92500000Y-57850000D03*
X92500000Y-56450000D03*
X98000000Y-57850000D03*
X98000000Y-56450000D03*
G04 #@! TD*
G04 #@! TO.C,LED37*
X73450000Y-67375000D03*
X73450000Y-65975000D03*
X78950000Y-67375000D03*
X78950000Y-65975000D03*
G04 #@! TD*
G04 #@! TO.C,LED38*
X54400000Y-72137500D03*
X54400000Y-70737500D03*
X59900000Y-72137500D03*
X59900000Y-70737500D03*
G04 #@! TD*
G04 #@! TO.C,LED39*
X59900000Y-89787500D03*
X59900000Y-91187500D03*
X54400000Y-89787500D03*
X54400000Y-91187500D03*
G04 #@! TD*
G04 #@! TO.C,LED41*
X98000000Y-75500000D03*
X98000000Y-76900000D03*
X92500000Y-75500000D03*
X92500000Y-76900000D03*
G04 #@! TD*
G04 #@! TO.C,LED43*
X136100000Y-85025000D03*
X136100000Y-86425000D03*
X130600000Y-85025000D03*
X130600000Y-86425000D03*
G04 #@! TD*
D15*
G04 #@! TO.C,LED45*
G36*
X153465556Y-141433590D02*
G01*
X152758449Y-142140697D01*
X151556368Y-140938616D01*
X152263475Y-140231509D01*
X153465556Y-141433590D01*
G37*
G36*
X154455505Y-140443641D02*
G01*
X153748398Y-141150748D01*
X152546317Y-139948667D01*
X153253424Y-139241560D01*
X154455505Y-140443641D01*
G37*
G36*
X157354643Y-145322677D02*
G01*
X156647536Y-146029784D01*
X155445455Y-144827703D01*
X156152562Y-144120596D01*
X157354643Y-145322677D01*
G37*
G36*
X158344592Y-144332728D02*
G01*
X157637485Y-145039835D01*
X156435404Y-143837754D01*
X157142511Y-143130647D01*
X158344592Y-144332728D01*
G37*
G04 #@! TD*
G04 #@! TO.C,LED47*
G36*
X146730364Y-121228014D02*
G01*
X146023257Y-121935121D01*
X144821176Y-120733040D01*
X145528283Y-120025933D01*
X146730364Y-121228014D01*
G37*
G36*
X147720313Y-120238065D02*
G01*
X147013206Y-120945172D01*
X145811125Y-119743091D01*
X146518232Y-119035984D01*
X147720313Y-120238065D01*
G37*
G36*
X150619451Y-125117101D02*
G01*
X149912344Y-125824208D01*
X148710263Y-124622127D01*
X149417370Y-123915020D01*
X150619451Y-125117101D01*
G37*
G36*
X151609400Y-124127152D02*
G01*
X150902293Y-124834259D01*
X149700212Y-123632178D01*
X150407319Y-122925071D01*
X151609400Y-124127152D01*
G37*
G04 #@! TD*
G04 #@! TO.C,LED49*
G36*
X133259980Y-107757630D02*
G01*
X132552873Y-108464737D01*
X131350792Y-107262656D01*
X132057899Y-106555549D01*
X133259980Y-107757630D01*
G37*
G36*
X134249929Y-106767681D02*
G01*
X133542822Y-107474788D01*
X132340741Y-106272707D01*
X133047848Y-105565600D01*
X134249929Y-106767681D01*
G37*
G36*
X137149067Y-111646717D02*
G01*
X136441960Y-112353824D01*
X135239879Y-111151743D01*
X135946986Y-110444636D01*
X137149067Y-111646717D01*
G37*
G36*
X138139016Y-110656768D02*
G01*
X137431909Y-111363875D01*
X136229828Y-110161794D01*
X136936935Y-109454687D01*
X138139016Y-110656768D01*
G37*
G04 #@! TD*
G04 #@! TO.C,LED50*
G36*
X113054404Y-101022438D02*
G01*
X112347297Y-101729545D01*
X111145216Y-100527464D01*
X111852323Y-99820357D01*
X113054404Y-101022438D01*
G37*
G36*
X114044353Y-100032489D02*
G01*
X113337246Y-100739596D01*
X112135165Y-99537515D01*
X112842272Y-98830408D01*
X114044353Y-100032489D01*
G37*
G36*
X116943491Y-104911525D02*
G01*
X116236384Y-105618632D01*
X115034303Y-104416551D01*
X115741410Y-103709444D01*
X116943491Y-104911525D01*
G37*
G36*
X117933440Y-103921576D02*
G01*
X117226333Y-104628683D01*
X116024252Y-103426602D01*
X116731359Y-102719495D01*
X117933440Y-103921576D01*
G37*
G04 #@! TD*
D17*
G04 #@! TO.C,LED52*
X88475000Y-156462500D03*
X88475000Y-157862500D03*
X82975000Y-156462500D03*
X82975000Y-157862500D03*
G04 #@! TD*
M02*
