G04 #@! TF.GenerationSoftware,KiCad,Pcbnew,(5.1.9)-1*
G04 #@! TF.CreationDate,2021-10-14T03:32:22+09:00*
G04 #@! TF.ProjectId,GraSPIntEx,47726153-5049-46e7-9445-782e6b696361,rev?*
G04 #@! TF.SameCoordinates,Original*
G04 #@! TF.FileFunction,Paste,Top*
G04 #@! TF.FilePolarity,Positive*
%FSLAX46Y46*%
G04 Gerber Fmt 4.6, Leading zero omitted, Abs format (unit mm)*
G04 Created by KiCad (PCBNEW (5.1.9)-1) date 2021-10-14 03:32:22*
%MOMM*%
%LPD*%
G01*
G04 APERTURE LIST*
%ADD10R,0.750000X1.200000*%
%ADD11R,1.700000X1.000000*%
%ADD12R,6.350000X0.760000*%
%ADD13C,0.100000*%
G04 APERTURE END LIST*
G04 #@! TO.C,R1*
G36*
G01*
X171800000Y-109775000D02*
X171800000Y-109300000D01*
G75*
G02*
X172037500Y-109062500I237500J0D01*
G01*
X172612500Y-109062500D01*
G75*
G02*
X172850000Y-109300000I0J-237500D01*
G01*
X172850000Y-109775000D01*
G75*
G02*
X172612500Y-110012500I-237500J0D01*
G01*
X172037500Y-110012500D01*
G75*
G02*
X171800000Y-109775000I0J237500D01*
G01*
G37*
G36*
G01*
X170050000Y-109775000D02*
X170050000Y-109300000D01*
G75*
G02*
X170287500Y-109062500I237500J0D01*
G01*
X170862500Y-109062500D01*
G75*
G02*
X171100000Y-109300000I0J-237500D01*
G01*
X171100000Y-109775000D01*
G75*
G02*
X170862500Y-110012500I-237500J0D01*
G01*
X170287500Y-110012500D01*
G75*
G02*
X170050000Y-109775000I0J237500D01*
G01*
G37*
G04 #@! TD*
G04 #@! TO.C,R2*
G36*
G01*
X171800000Y-114537500D02*
X171800000Y-114062500D01*
G75*
G02*
X172037500Y-113825000I237500J0D01*
G01*
X172612500Y-113825000D01*
G75*
G02*
X172850000Y-114062500I0J-237500D01*
G01*
X172850000Y-114537500D01*
G75*
G02*
X172612500Y-114775000I-237500J0D01*
G01*
X172037500Y-114775000D01*
G75*
G02*
X171800000Y-114537500I0J237500D01*
G01*
G37*
G36*
G01*
X170050000Y-114537500D02*
X170050000Y-114062500D01*
G75*
G02*
X170287500Y-113825000I237500J0D01*
G01*
X170862500Y-113825000D01*
G75*
G02*
X171100000Y-114062500I0J-237500D01*
G01*
X171100000Y-114537500D01*
G75*
G02*
X170862500Y-114775000I-237500J0D01*
G01*
X170287500Y-114775000D01*
G75*
G02*
X170050000Y-114537500I0J237500D01*
G01*
G37*
G04 #@! TD*
G04 #@! TO.C,U1*
G36*
G01*
X30543500Y-96647000D02*
X29781500Y-96647000D01*
G75*
G02*
X29400500Y-96266000I0J381000D01*
G01*
X29400500Y-95504000D01*
G75*
G02*
X29781500Y-95123000I381000J0D01*
G01*
X30543500Y-95123000D01*
G75*
G02*
X30924500Y-95504000I0J-381000D01*
G01*
X30924500Y-96266000D01*
G75*
G02*
X30543500Y-96647000I-381000J0D01*
G01*
G37*
G36*
G01*
X33083500Y-96647000D02*
X32321500Y-96647000D01*
G75*
G02*
X31940500Y-96266000I0J381000D01*
G01*
X31940500Y-95504000D01*
G75*
G02*
X32321500Y-95123000I381000J0D01*
G01*
X33083500Y-95123000D01*
G75*
G02*
X33464500Y-95504000I0J-381000D01*
G01*
X33464500Y-96266000D01*
G75*
G02*
X33083500Y-96647000I-381000J0D01*
G01*
G37*
G36*
G01*
X35623500Y-96647000D02*
X34861500Y-96647000D01*
G75*
G02*
X34480500Y-96266000I0J381000D01*
G01*
X34480500Y-95504000D01*
G75*
G02*
X34861500Y-95123000I381000J0D01*
G01*
X35623500Y-95123000D01*
G75*
G02*
X36004500Y-95504000I0J-381000D01*
G01*
X36004500Y-96266000D01*
G75*
G02*
X35623500Y-96647000I-381000J0D01*
G01*
G37*
G36*
G01*
X38163500Y-96647000D02*
X37401500Y-96647000D01*
G75*
G02*
X37020500Y-96266000I0J381000D01*
G01*
X37020500Y-95504000D01*
G75*
G02*
X37401500Y-95123000I381000J0D01*
G01*
X38163500Y-95123000D01*
G75*
G02*
X38544500Y-95504000I0J-381000D01*
G01*
X38544500Y-96266000D01*
G75*
G02*
X38163500Y-96647000I-381000J0D01*
G01*
G37*
G36*
G01*
X40703500Y-96647000D02*
X39941500Y-96647000D01*
G75*
G02*
X39560500Y-96266000I0J381000D01*
G01*
X39560500Y-95504000D01*
G75*
G02*
X39941500Y-95123000I381000J0D01*
G01*
X40703500Y-95123000D01*
G75*
G02*
X41084500Y-95504000I0J-381000D01*
G01*
X41084500Y-96266000D01*
G75*
G02*
X40703500Y-96647000I-381000J0D01*
G01*
G37*
G36*
G01*
X43243500Y-96647000D02*
X42481500Y-96647000D01*
G75*
G02*
X42100500Y-96266000I0J381000D01*
G01*
X42100500Y-95504000D01*
G75*
G02*
X42481500Y-95123000I381000J0D01*
G01*
X43243500Y-95123000D01*
G75*
G02*
X43624500Y-95504000I0J-381000D01*
G01*
X43624500Y-96266000D01*
G75*
G02*
X43243500Y-96647000I-381000J0D01*
G01*
G37*
G36*
G01*
X45783500Y-96647000D02*
X45021500Y-96647000D01*
G75*
G02*
X44640500Y-96266000I0J381000D01*
G01*
X44640500Y-95504000D01*
G75*
G02*
X45021500Y-95123000I381000J0D01*
G01*
X45783500Y-95123000D01*
G75*
G02*
X46164500Y-95504000I0J-381000D01*
G01*
X46164500Y-96266000D01*
G75*
G02*
X45783500Y-96647000I-381000J0D01*
G01*
G37*
G36*
G01*
X48323500Y-96647000D02*
X47561500Y-96647000D01*
G75*
G02*
X47180500Y-96266000I0J381000D01*
G01*
X47180500Y-95504000D01*
G75*
G02*
X47561500Y-95123000I381000J0D01*
G01*
X48323500Y-95123000D01*
G75*
G02*
X48704500Y-95504000I0J-381000D01*
G01*
X48704500Y-96266000D01*
G75*
G02*
X48323500Y-96647000I-381000J0D01*
G01*
G37*
G36*
G01*
X50863500Y-96647000D02*
X50101500Y-96647000D01*
G75*
G02*
X49720500Y-96266000I0J381000D01*
G01*
X49720500Y-95504000D01*
G75*
G02*
X50101500Y-95123000I381000J0D01*
G01*
X50863500Y-95123000D01*
G75*
G02*
X51244500Y-95504000I0J-381000D01*
G01*
X51244500Y-96266000D01*
G75*
G02*
X50863500Y-96647000I-381000J0D01*
G01*
G37*
G36*
G01*
X53403500Y-96647000D02*
X52641500Y-96647000D01*
G75*
G02*
X52260500Y-96266000I0J381000D01*
G01*
X52260500Y-95504000D01*
G75*
G02*
X52641500Y-95123000I381000J0D01*
G01*
X53403500Y-95123000D01*
G75*
G02*
X53784500Y-95504000I0J-381000D01*
G01*
X53784500Y-96266000D01*
G75*
G02*
X53403500Y-96647000I-381000J0D01*
G01*
G37*
G36*
G01*
X55943500Y-96647000D02*
X55181500Y-96647000D01*
G75*
G02*
X54800500Y-96266000I0J381000D01*
G01*
X54800500Y-95504000D01*
G75*
G02*
X55181500Y-95123000I381000J0D01*
G01*
X55943500Y-95123000D01*
G75*
G02*
X56324500Y-95504000I0J-381000D01*
G01*
X56324500Y-96266000D01*
G75*
G02*
X55943500Y-96647000I-381000J0D01*
G01*
G37*
G36*
G01*
X58483500Y-96647000D02*
X57721500Y-96647000D01*
G75*
G02*
X57340500Y-96266000I0J381000D01*
G01*
X57340500Y-95504000D01*
G75*
G02*
X57721500Y-95123000I381000J0D01*
G01*
X58483500Y-95123000D01*
G75*
G02*
X58864500Y-95504000I0J-381000D01*
G01*
X58864500Y-96266000D01*
G75*
G02*
X58483500Y-96647000I-381000J0D01*
G01*
G37*
G36*
G01*
X58483500Y-114427000D02*
X57721500Y-114427000D01*
G75*
G02*
X57340500Y-114046000I0J381000D01*
G01*
X57340500Y-113284000D01*
G75*
G02*
X57721500Y-112903000I381000J0D01*
G01*
X58483500Y-112903000D01*
G75*
G02*
X58864500Y-113284000I0J-381000D01*
G01*
X58864500Y-114046000D01*
G75*
G02*
X58483500Y-114427000I-381000J0D01*
G01*
G37*
G36*
G01*
X55943500Y-114427000D02*
X55181500Y-114427000D01*
G75*
G02*
X54800500Y-114046000I0J381000D01*
G01*
X54800500Y-113284000D01*
G75*
G02*
X55181500Y-112903000I381000J0D01*
G01*
X55943500Y-112903000D01*
G75*
G02*
X56324500Y-113284000I0J-381000D01*
G01*
X56324500Y-114046000D01*
G75*
G02*
X55943500Y-114427000I-381000J0D01*
G01*
G37*
G36*
G01*
X53403500Y-114427000D02*
X52641500Y-114427000D01*
G75*
G02*
X52260500Y-114046000I0J381000D01*
G01*
X52260500Y-113284000D01*
G75*
G02*
X52641500Y-112903000I381000J0D01*
G01*
X53403500Y-112903000D01*
G75*
G02*
X53784500Y-113284000I0J-381000D01*
G01*
X53784500Y-114046000D01*
G75*
G02*
X53403500Y-114427000I-381000J0D01*
G01*
G37*
G36*
G01*
X50863500Y-114427000D02*
X50101500Y-114427000D01*
G75*
G02*
X49720500Y-114046000I0J381000D01*
G01*
X49720500Y-113284000D01*
G75*
G02*
X50101500Y-112903000I381000J0D01*
G01*
X50863500Y-112903000D01*
G75*
G02*
X51244500Y-113284000I0J-381000D01*
G01*
X51244500Y-114046000D01*
G75*
G02*
X50863500Y-114427000I-381000J0D01*
G01*
G37*
G36*
G01*
X48323500Y-114427000D02*
X47561500Y-114427000D01*
G75*
G02*
X47180500Y-114046000I0J381000D01*
G01*
X47180500Y-113284000D01*
G75*
G02*
X47561500Y-112903000I381000J0D01*
G01*
X48323500Y-112903000D01*
G75*
G02*
X48704500Y-113284000I0J-381000D01*
G01*
X48704500Y-114046000D01*
G75*
G02*
X48323500Y-114427000I-381000J0D01*
G01*
G37*
G36*
G01*
X45783500Y-114427000D02*
X45021500Y-114427000D01*
G75*
G02*
X44640500Y-114046000I0J381000D01*
G01*
X44640500Y-113284000D01*
G75*
G02*
X45021500Y-112903000I381000J0D01*
G01*
X45783500Y-112903000D01*
G75*
G02*
X46164500Y-113284000I0J-381000D01*
G01*
X46164500Y-114046000D01*
G75*
G02*
X45783500Y-114427000I-381000J0D01*
G01*
G37*
G36*
G01*
X43243500Y-114427000D02*
X42481500Y-114427000D01*
G75*
G02*
X42100500Y-114046000I0J381000D01*
G01*
X42100500Y-113284000D01*
G75*
G02*
X42481500Y-112903000I381000J0D01*
G01*
X43243500Y-112903000D01*
G75*
G02*
X43624500Y-113284000I0J-381000D01*
G01*
X43624500Y-114046000D01*
G75*
G02*
X43243500Y-114427000I-381000J0D01*
G01*
G37*
G36*
G01*
X40703500Y-114427000D02*
X39941500Y-114427000D01*
G75*
G02*
X39560500Y-114046000I0J381000D01*
G01*
X39560500Y-113284000D01*
G75*
G02*
X39941500Y-112903000I381000J0D01*
G01*
X40703500Y-112903000D01*
G75*
G02*
X41084500Y-113284000I0J-381000D01*
G01*
X41084500Y-114046000D01*
G75*
G02*
X40703500Y-114427000I-381000J0D01*
G01*
G37*
G36*
G01*
X38163500Y-114427000D02*
X37401500Y-114427000D01*
G75*
G02*
X37020500Y-114046000I0J381000D01*
G01*
X37020500Y-113284000D01*
G75*
G02*
X37401500Y-112903000I381000J0D01*
G01*
X38163500Y-112903000D01*
G75*
G02*
X38544500Y-113284000I0J-381000D01*
G01*
X38544500Y-114046000D01*
G75*
G02*
X38163500Y-114427000I-381000J0D01*
G01*
G37*
G36*
G01*
X35623500Y-114427000D02*
X34861500Y-114427000D01*
G75*
G02*
X34480500Y-114046000I0J381000D01*
G01*
X34480500Y-113284000D01*
G75*
G02*
X34861500Y-112903000I381000J0D01*
G01*
X35623500Y-112903000D01*
G75*
G02*
X36004500Y-113284000I0J-381000D01*
G01*
X36004500Y-114046000D01*
G75*
G02*
X35623500Y-114427000I-381000J0D01*
G01*
G37*
G36*
G01*
X33083500Y-114427000D02*
X32321500Y-114427000D01*
G75*
G02*
X31940500Y-114046000I0J381000D01*
G01*
X31940500Y-113284000D01*
G75*
G02*
X32321500Y-112903000I381000J0D01*
G01*
X33083500Y-112903000D01*
G75*
G02*
X33464500Y-113284000I0J-381000D01*
G01*
X33464500Y-114046000D01*
G75*
G02*
X33083500Y-114427000I-381000J0D01*
G01*
G37*
G36*
G01*
X30543500Y-114427000D02*
X29781500Y-114427000D01*
G75*
G02*
X29400500Y-114046000I0J381000D01*
G01*
X29400500Y-113284000D01*
G75*
G02*
X29781500Y-112903000I381000J0D01*
G01*
X30543500Y-112903000D01*
G75*
G02*
X30924500Y-113284000I0J-381000D01*
G01*
X30924500Y-114046000D01*
G75*
G02*
X30543500Y-114427000I-381000J0D01*
G01*
G37*
G04 #@! TD*
D10*
G04 #@! TO.C,D5*
X104775000Y-31637500D03*
X104775000Y-35037500D03*
G04 #@! TD*
G04 #@! TO.C,D3*
X85725000Y-41162500D03*
X85725000Y-44562500D03*
G04 #@! TD*
G04 #@! TO.C,D1*
X66675000Y-45925000D03*
X66675000Y-49325000D03*
G04 #@! TD*
G04 #@! TO.C,D7*
X123825000Y-31637500D03*
X123825000Y-35037500D03*
G04 #@! TD*
G04 #@! TO.C,D9*
X142875000Y-41162500D03*
X142875000Y-44562500D03*
G04 #@! TD*
G04 #@! TO.C,D13*
X66675000Y-64975000D03*
X66675000Y-68375000D03*
G04 #@! TD*
G04 #@! TO.C,D15*
X85725000Y-60212500D03*
X85725000Y-63612500D03*
G04 #@! TD*
G04 #@! TO.C,D17*
X104775000Y-50687500D03*
X104775000Y-54087500D03*
G04 #@! TD*
G04 #@! TO.C,D21*
X142875000Y-60212500D03*
X142875000Y-63612500D03*
G04 #@! TD*
G04 #@! TO.C,D23*
X161925000Y-64975000D03*
X161925000Y-68375000D03*
G04 #@! TD*
G04 #@! TO.C,D11*
X161925000Y-45925000D03*
X161925000Y-49325000D03*
G04 #@! TD*
G04 #@! TO.C,D25*
X66675000Y-84025000D03*
X66675000Y-87425000D03*
G04 #@! TD*
G04 #@! TO.C,D19*
X123825000Y-50687500D03*
X123825000Y-54087500D03*
G04 #@! TD*
G04 #@! TO.C,D27*
X85725000Y-79262500D03*
X85725000Y-82662500D03*
G04 #@! TD*
G04 #@! TO.C,D29*
X104775000Y-69737500D03*
X104775000Y-73137500D03*
G04 #@! TD*
G04 #@! TO.C,D31*
X123825000Y-69737500D03*
X123825000Y-73137500D03*
G04 #@! TD*
G04 #@! TO.C,D33*
X142875000Y-79262500D03*
X142875000Y-82662500D03*
G04 #@! TD*
G04 #@! TO.C,D35*
X161925000Y-84025000D03*
X161925000Y-87425000D03*
G04 #@! TD*
G04 #@! TO.C,D37*
X100012500Y-107837500D03*
X100012500Y-111237500D03*
G04 #@! TD*
G04 #@! TO.C,D39*
X109537500Y-107837500D03*
X109537500Y-111237500D03*
G04 #@! TD*
G04 #@! TO.C,D41*
X100012500Y-117362500D03*
X100012500Y-120762500D03*
G04 #@! TD*
G04 #@! TO.C,D43*
X147637500Y-145937500D03*
X147637500Y-149337500D03*
G04 #@! TD*
G04 #@! TO.C,D45*
X138112500Y-155462500D03*
X138112500Y-158862500D03*
G04 #@! TD*
G04 #@! TO.C,D47*
X147637500Y-155462500D03*
X147637500Y-158862500D03*
G04 #@! TD*
G04 #@! TO.C,D49*
X57150000Y-122125000D03*
X57150000Y-125525000D03*
G04 #@! TD*
G04 #@! TO.C,D51*
X95250000Y-150700000D03*
X95250000Y-154100000D03*
G04 #@! TD*
D11*
G04 #@! TO.C,LED1*
X59900000Y-53087500D03*
X59900000Y-51687500D03*
X54400000Y-53087500D03*
X54400000Y-51687500D03*
G04 #@! TD*
D12*
G04 #@! TO.C,J1*
X167159500Y-93345000D03*
X167159500Y-94615000D03*
X167159500Y-95885000D03*
X167159500Y-97155000D03*
G04 #@! TD*
D11*
G04 #@! TO.C,LED2*
X78950000Y-48325000D03*
X78950000Y-46925000D03*
X73450000Y-48325000D03*
X73450000Y-46925000D03*
G04 #@! TD*
G04 #@! TO.C,LED3*
X98000000Y-38800000D03*
X98000000Y-37400000D03*
X92500000Y-38800000D03*
X92500000Y-37400000D03*
G04 #@! TD*
G04 #@! TO.C,LED4*
X117050000Y-38800000D03*
X117050000Y-37400000D03*
X111550000Y-38800000D03*
X111550000Y-37400000D03*
G04 #@! TD*
G04 #@! TO.C,LED5*
X136100000Y-48325000D03*
X136100000Y-46925000D03*
X130600000Y-48325000D03*
X130600000Y-46925000D03*
G04 #@! TD*
G04 #@! TO.C,LED6*
X155150000Y-53087500D03*
X155150000Y-51687500D03*
X149650000Y-53087500D03*
X149650000Y-51687500D03*
G04 #@! TD*
G04 #@! TO.C,LED7*
X149650000Y-70737500D03*
X149650000Y-72137500D03*
X155150000Y-70737500D03*
X155150000Y-72137500D03*
G04 #@! TD*
G04 #@! TO.C,LED8*
X130600000Y-65975000D03*
X130600000Y-67375000D03*
X136100000Y-65975000D03*
X136100000Y-67375000D03*
G04 #@! TD*
D13*
G04 #@! TO.C,LED23*
G36*
X134249929Y-106767681D02*
G01*
X133542822Y-107474788D01*
X132340741Y-106272707D01*
X133047848Y-105565600D01*
X134249929Y-106767681D01*
G37*
G36*
X133259980Y-107757630D02*
G01*
X132552873Y-108464737D01*
X131350792Y-107262656D01*
X132057899Y-106555549D01*
X133259980Y-107757630D01*
G37*
G36*
X138139016Y-110656768D02*
G01*
X137431909Y-111363875D01*
X136229828Y-110161794D01*
X136936935Y-109454687D01*
X138139016Y-110656768D01*
G37*
G36*
X137149067Y-111646717D02*
G01*
X136441960Y-112353824D01*
X135239879Y-111151743D01*
X135946986Y-110444636D01*
X137149067Y-111646717D01*
G37*
G04 #@! TD*
G04 #@! TO.C,LED24*
G36*
X114044353Y-100032489D02*
G01*
X113337246Y-100739596D01*
X112135165Y-99537515D01*
X112842272Y-98830408D01*
X114044353Y-100032489D01*
G37*
G36*
X113054404Y-101022438D02*
G01*
X112347297Y-101729545D01*
X111145216Y-100527464D01*
X111852323Y-99820357D01*
X113054404Y-101022438D01*
G37*
G36*
X117933440Y-103921576D02*
G01*
X117226333Y-104628683D01*
X116024252Y-103426602D01*
X116731359Y-102719495D01*
X117933440Y-103921576D01*
G37*
G36*
X116943491Y-104911525D02*
G01*
X116236384Y-105618632D01*
X115034303Y-104416551D01*
X115741410Y-103709444D01*
X116943491Y-104911525D01*
G37*
G04 #@! TD*
D11*
G04 #@! TO.C,LED16*
X117050000Y-76900000D03*
X117050000Y-75500000D03*
X111550000Y-76900000D03*
X111550000Y-75500000D03*
G04 #@! TD*
D13*
G04 #@! TO.C,LED22*
G36*
X120779545Y-120238065D02*
G01*
X120072438Y-120945172D01*
X118870357Y-119743091D01*
X119577464Y-119035984D01*
X120779545Y-120238065D01*
G37*
G36*
X119789596Y-121228014D02*
G01*
X119082489Y-121935121D01*
X117880408Y-120733040D01*
X118587515Y-120025933D01*
X119789596Y-121228014D01*
G37*
G36*
X124668632Y-124127152D02*
G01*
X123961525Y-124834259D01*
X122759444Y-123632178D01*
X123466551Y-122925071D01*
X124668632Y-124127152D01*
G37*
G36*
X123678683Y-125117101D02*
G01*
X122971576Y-125824208D01*
X121769495Y-124622127D01*
X122476602Y-123915020D01*
X123678683Y-125117101D01*
G37*
G04 #@! TD*
D11*
G04 #@! TO.C,LED14*
X78950000Y-86425000D03*
X78950000Y-85025000D03*
X73450000Y-86425000D03*
X73450000Y-85025000D03*
G04 #@! TD*
G04 #@! TO.C,LED13*
X59900000Y-91187500D03*
X59900000Y-89787500D03*
X54400000Y-91187500D03*
X54400000Y-89787500D03*
G04 #@! TD*
D13*
G04 #@! TO.C,LED20*
G36*
X134249929Y-133708449D02*
G01*
X133542822Y-134415556D01*
X132340741Y-133213475D01*
X133047848Y-132506368D01*
X134249929Y-133708449D01*
G37*
G36*
X133259980Y-134698398D02*
G01*
X132552873Y-135405505D01*
X131350792Y-134203424D01*
X132057899Y-133496317D01*
X133259980Y-134698398D01*
G37*
G36*
X138139016Y-137597536D02*
G01*
X137431909Y-138304643D01*
X136229828Y-137102562D01*
X136936935Y-136395455D01*
X138139016Y-137597536D01*
G37*
G36*
X137149067Y-138587485D02*
G01*
X136441960Y-139294592D01*
X135239879Y-138092511D01*
X135946986Y-137385404D01*
X137149067Y-138587485D01*
G37*
G04 #@! TD*
D11*
G04 #@! TO.C,LED15*
X98000000Y-76900000D03*
X98000000Y-75500000D03*
X92500000Y-76900000D03*
X92500000Y-75500000D03*
G04 #@! TD*
G04 #@! TO.C,LED10*
X92500000Y-56450000D03*
X92500000Y-57850000D03*
X98000000Y-56450000D03*
X98000000Y-57850000D03*
G04 #@! TD*
G04 #@! TO.C,LED17*
X136100000Y-86425000D03*
X136100000Y-85025000D03*
X130600000Y-86425000D03*
X130600000Y-85025000D03*
G04 #@! TD*
G04 #@! TO.C,LED18*
X155150000Y-91187500D03*
X155150000Y-89787500D03*
X149650000Y-91187500D03*
X149650000Y-89787500D03*
G04 #@! TD*
G04 #@! TO.C,LED9*
X111550000Y-56450000D03*
X111550000Y-57850000D03*
X117050000Y-56450000D03*
X117050000Y-57850000D03*
G04 #@! TD*
G04 #@! TO.C,LED11*
X73450000Y-65975000D03*
X73450000Y-67375000D03*
X78950000Y-65975000D03*
X78950000Y-67375000D03*
G04 #@! TD*
D13*
G04 #@! TO.C,LED19*
G36*
X154455505Y-140443641D02*
G01*
X153748398Y-141150748D01*
X152546317Y-139948667D01*
X153253424Y-139241560D01*
X154455505Y-140443641D01*
G37*
G36*
X153465556Y-141433590D02*
G01*
X152758449Y-142140697D01*
X151556368Y-140938616D01*
X152263475Y-140231509D01*
X153465556Y-141433590D01*
G37*
G36*
X158344592Y-144332728D02*
G01*
X157637485Y-145039835D01*
X156435404Y-143837754D01*
X157142511Y-143130647D01*
X158344592Y-144332728D01*
G37*
G36*
X157354643Y-145322677D02*
G01*
X156647536Y-146029784D01*
X155445455Y-144827703D01*
X156152562Y-144120596D01*
X157354643Y-145322677D01*
G37*
G04 #@! TD*
D11*
G04 #@! TO.C,LED12*
X54400000Y-70737500D03*
X54400000Y-72137500D03*
X59900000Y-70737500D03*
X59900000Y-72137500D03*
G04 #@! TD*
D13*
G04 #@! TO.C,LED21*
G36*
X147720313Y-120238065D02*
G01*
X147013206Y-120945172D01*
X145811125Y-119743091D01*
X146518232Y-119035984D01*
X147720313Y-120238065D01*
G37*
G36*
X146730364Y-121228014D02*
G01*
X146023257Y-121935121D01*
X144821176Y-120733040D01*
X145528283Y-120025933D01*
X146730364Y-121228014D01*
G37*
G36*
X151609400Y-124127152D02*
G01*
X150902293Y-124834259D01*
X149700212Y-123632178D01*
X150407319Y-122925071D01*
X151609400Y-124127152D01*
G37*
G36*
X150619451Y-125117101D02*
G01*
X149912344Y-125824208D01*
X148710263Y-124622127D01*
X149417370Y-123915020D01*
X150619451Y-125117101D01*
G37*
G04 #@! TD*
D11*
G04 #@! TO.C,LED25*
X50375000Y-129287500D03*
X50375000Y-127887500D03*
X44875000Y-129287500D03*
X44875000Y-127887500D03*
G04 #@! TD*
G04 #@! TO.C,LED26*
X88475000Y-157862500D03*
X88475000Y-156462500D03*
X82975000Y-157862500D03*
X82975000Y-156462500D03*
G04 #@! TD*
M02*
